<?xml version="1.0" encoding="UTF-8"?>
<svg viewBox="0 0 1000 442" width="1000" height="442" xmlns="http://www.w3.org/2000/svg" style="width:100%;height:auto;font-family:&quot;Segoe UI&quot;,&quot;Helvetica Neue&quot;,Arial,sans-serif"><defs><marker id="ag" viewBox="0 0 10 10" refX="9" refY="5" markerWidth="7" markerHeight="7" orient="auto-start-reverse"><path d="M0,0 L10,5 L0,10 z" fill="#5b6b7f"/></marker><marker id="sg" viewBox="0 0 10 10" refX="9" refY="5" markerWidth="7" markerHeight="7" orient="auto-start-reverse"><path d="M0,0 L10,5 L0,10 z" fill="#5b6b7f"/></marker><marker id="an" viewBox="0 0 10 10" refX="9" refY="5" markerWidth="7" markerHeight="7" orient="auto-start-reverse"><path d="M0,0 L10,5 L0,10 z" fill="#1f4e79"/></marker><marker id="sn" viewBox="0 0 10 10" refX="9" refY="5" markerWidth="7" markerHeight="7" orient="auto-start-reverse"><path d="M0,0 L10,5 L0,10 z" fill="#1f4e79"/></marker><marker id="ar" viewBox="0 0 10 10" refX="9" refY="5" markerWidth="7" markerHeight="7" orient="auto-start-reverse"><path d="M0,0 L10,5 L0,10 z" fill="#b3261e"/></marker><marker id="sr" viewBox="0 0 10 10" refX="9" refY="5" markerWidth="7" markerHeight="7" orient="auto-start-reverse"><path d="M0,0 L10,5 L0,10 z" fill="#b3261e"/></marker><marker id="ak" viewBox="0 0 10 10" refX="9" refY="5" markerWidth="7" markerHeight="7" orient="auto-start-reverse"><path d="M0,0 L10,5 L0,10 z" fill="#2e7d32"/></marker><marker id="sk" viewBox="0 0 10 10" refX="9" refY="5" markerWidth="7" markerHeight="7" orient="auto-start-reverse"><path d="M0,0 L10,5 L0,10 z" fill="#2e7d32"/></marker><marker id="aa" viewBox="0 0 10 10" refX="9" refY="5" markerWidth="7" markerHeight="7" orient="auto-start-reverse"><path d="M0,0 L10,5 L0,10 z" fill="#b86e00"/></marker><marker id="sa" viewBox="0 0 10 10" refX="9" refY="5" markerWidth="7" markerHeight="7" orient="auto-start-reverse"><path d="M0,0 L10,5 L0,10 z" fill="#b86e00"/></marker><marker id="at" viewBox="0 0 10 10" refX="9" refY="5" markerWidth="7" markerHeight="7" orient="auto-start-reverse"><path d="M0,0 L10,5 L0,10 z" fill="#0b7a75"/></marker><marker id="st" viewBox="0 0 10 10" refX="9" refY="5" markerWidth="7" markerHeight="7" orient="auto-start-reverse"><path d="M0,0 L10,5 L0,10 z" fill="#0b7a75"/></marker><marker id="av" viewBox="0 0 10 10" refX="9" refY="5" markerWidth="7" markerHeight="7" orient="auto-start-reverse"><path d="M0,0 L10,5 L0,10 z" fill="#5b3fd1"/></marker><marker id="sv" viewBox="0 0 10 10" refX="9" refY="5" markerWidth="7" markerHeight="7" orient="auto-start-reverse"><path d="M0,0 L10,5 L0,10 z" fill="#5b3fd1"/></marker></defs><rect x="0" y="0" width="1000" height="442" rx="10" fill="#ffffff"/><rect x="10" y="39.0" width="120" height="93.60000000000001" rx="7" fill="#e0f2ef" stroke="#0b7a75" stroke-width="1.4"/><text xml:space="preserve" x="70.0" y="91.4" font-size="16.1" font-weight="700" fill="#0b7a75" text-anchor="middle">Tenable.io</text><rect x="145" y="39.0" width="161.0" height="93.60000000000001" rx="7" fill="#e8f0f9" stroke="#0b7a75" stroke-width="1.4"/><text xml:space="preserve" x="225.5" y="82.2" font-size="14.6" font-weight="700" fill="#0b7a75" text-anchor="middle">Assets</text><text xml:space="preserve" x="225.5" y="100.0" font-size="13.4" font-weight="400" fill="#16212e" text-anchor="middle">chunked export</text><rect x="316.0" y="39.0" width="161.0" height="93.60000000000001" rx="7" fill="#e8f0f9" stroke="#0b7a75" stroke-width="1.4"/><text xml:space="preserve" x="396.5" y="82.2" font-size="14.6" font-weight="700" fill="#0b7a75" text-anchor="middle">Plugin</text><text xml:space="preserve" x="396.5" y="100.0" font-size="13.4" font-weight="400" fill="#16212e" text-anchor="middle">incremental</text><rect x="487.0" y="39.0" width="161.0" height="93.60000000000001" rx="7" fill="#e8f0f9" stroke="#0b7a75" stroke-width="1.4"/><text xml:space="preserve" x="567.5" y="72.7" font-size="14.6" font-weight="700" fill="#0b7a75" text-anchor="middle">Fixed Vulns → Open</text><text xml:space="preserve" x="567.5" y="91.7" font-size="14.6" font-weight="700" fill="#0b7a75" text-anchor="middle">Vulns</text><text xml:space="preserve" x="567.5" y="109.5" font-size="13.4" font-weight="400" fill="#16212e" text-anchor="middle">chained</text><rect x="658.0" y="39.0" width="161.0" height="93.60000000000001" rx="7" fill="#e8f0f9" stroke="#0b7a75" stroke-width="1.4"/><text xml:space="preserve" x="738.5" y="72.7" font-size="14.6" font-weight="700" fill="#0b7a75" text-anchor="middle">Fixed → Open</text><text xml:space="preserve" x="738.5" y="91.7" font-size="14.6" font-weight="700" fill="#0b7a75" text-anchor="middle">Compliance</text><text xml:space="preserve" x="738.5" y="109.5" font-size="13.4" font-weight="400" fill="#16212e" text-anchor="middle">v6.1.3+</text><rect x="829.0" y="39.0" width="161.0" height="93.60000000000001" rx="7" fill="#e8f0f9" stroke="#0b7a75" stroke-width="1.4"/><text xml:space="preserve" x="909.5" y="63.9" font-size="14.2" font-weight="700" fill="#0b7a75" text-anchor="middle">Credential ·</text><text xml:space="preserve" x="909.5" y="82.3" font-size="14.2" font-weight="700" fill="#0b7a75" text-anchor="middle">Template · Scan</text><text xml:space="preserve" x="909.5" y="100.7" font-size="14.2" font-weight="700" fill="#0b7a75" text-anchor="middle">Metadata</text><text xml:space="preserve" x="909.5" y="117.9" font-size="13.0" font-weight="400" fill="#16212e" text-anchor="middle">weekly creds; rescans</text><rect x="10" y="156.0" width="120" height="93.60000000000001" rx="7" fill="#e0f2ef" stroke="#0b7a75" stroke-width="1.4"/><text xml:space="preserve" x="70.0" y="208.4" font-size="16.1" font-weight="700" fill="#0b7a75" text-anchor="middle">Tenable.sc</text><rect x="145" y="156.0" width="230" height="93.60000000000001" rx="7" fill="#e8f0f9" stroke="#0b7a75" stroke-width="1.4"/><text xml:space="preserve" x="260.0" y="199.2" font-size="14.6" font-weight="700" fill="#0b7a75" text-anchor="middle">Assets Open / Fixed</text><text xml:space="preserve" x="260.0" y="217.0" font-size="13.4" font-weight="400" fill="#16212e" text-anchor="middle">avoids duplicate items</text><rect x="385" y="156.0" width="230" height="93.60000000000001" rx="7" fill="#e8f0f9" stroke="#0b7a75" stroke-width="1.4"/><text xml:space="preserve" x="500.0" y="190.5" font-size="14.6" font-weight="700" fill="#0b7a75" text-anchor="middle">Fixed Vulns → Open Vulns</text><text xml:space="preserve" x="500.0" y="208.3" font-size="13.4" font-weight="400" fill="#16212e" text-anchor="middle">excludes plugin families 0,</text><text xml:space="preserve" x="500.0" y="225.7" font-size="13.4" font-weight="400" fill="#16212e" text-anchor="middle">39</text><rect x="625" y="156.0" width="230" height="93.60000000000001" rx="7" fill="#e8f0f9" stroke="#0b7a75" stroke-width="1.4"/><text xml:space="preserve" x="740.0" y="199.2" font-size="14.6" font-weight="700" fill="#0b7a75" text-anchor="middle">Backfill</text><text xml:space="preserve" x="740.0" y="217.0" font-size="13.4" font-weight="400" fill="#16212e" text-anchor="middle">7-day; inactive</text><rect x="10" y="273.0" width="120" height="93.60000000000001" rx="7" fill="#e0f2ef" stroke="#0b7a75" stroke-width="1.4"/><text xml:space="preserve" x="70.0" y="325.4" font-size="16.1" font-weight="700" fill="#0b7a75" text-anchor="middle">Tenable.cs</text><rect x="145" y="273.0" width="230" height="93.60000000000001" rx="7" fill="#e8f0f9" stroke="#0b7a75" stroke-width="1.4"/><text xml:space="preserve" x="260.0" y="316.2" font-size="14.6" font-weight="700" fill="#0b7a75" text-anchor="middle">Open → Fixed</text><text xml:space="preserve" x="260.0" y="334.0" font-size="13.4" font-weight="400" fill="#16212e" text-anchor="middle">containers</text><rect x="385" y="273.0" width="230" height="93.60000000000001" rx="7" fill="#e8f0f9" stroke="#0b7a75" stroke-width="1.4"/><text xml:space="preserve" x="500.0" y="316.2" font-size="14.6" font-weight="700" fill="#0b7a75" text-anchor="middle">Open → Fixed</text><text xml:space="preserve" x="500.0" y="334.0" font-size="13.4" font-weight="400" fill="#16212e" text-anchor="middle">cloud hosts</text><rect x="10" y="384.8" width="980" height="52.0" rx="7" fill="#fff3df" stroke="#b86e00" stroke-width="1.4"/><text xml:space="preserve" x="500.0" y="406.9" font-size="12.9" font-weight="400" fill="#16212e" text-anchor="middle">Defaults: Critical + High only · 50 assets per vulnerability export chunk · asset chunk 1,000 · integrations time out after 5 min ·</text><text xml:space="preserve" x="500.0" y="423.7" font-size="12.9" font-weight="400" fill="#16212e" text-anchor="middle">import-queue entry limit 1 hour · empty start date = full history · MID Server only for Tenable.sc in another environment</text></svg>
